HIERARCHY
ROOT Hips
{
	OFFSET -345.600250 -557.180420 88.924065
	CHANNELS 6 Xposition Yposition Zposition Zrotation Yrotation Xrotation
	JOINT Spine
	{
		OFFSET 0.000000 2.080078 8.814240
		CHANNELS 6 Xposition Yposition Zposition Zrotation Yrotation Xrotation
		JOINT Spine1
		{
			OFFSET 0.000000 0.000000 8.844139
			CHANNELS 6 Xposition Yposition Zposition Zrotation Yrotation Xrotation
			JOINT Spine2
			{
				OFFSET 0.000000 0.000000 11.682266
				CHANNELS 6 Xposition Yposition Zposition Zrotation Yrotation Xrotation
				JOINT Spine3
				{
					OFFSET 0.000000 0.000000 11.746704
					CHANNELS 6 Xposition Yposition Zposition Zrotation Yrotation Xrotation
					JOINT Neck
					{
						OFFSET 0.000000 0.000000 17.658264
						CHANNELS 6 Xposition Yposition Zposition Zrotation Yrotation Xrotation
						JOINT Neck1
						{
							OFFSET 0.000000 0.000000 5.101517
							CHANNELS 6 Xposition Yposition Zposition Zrotation Yrotation Xrotation
							JOINT Head
							{
								OFFSET 0.000000 0.000000 5.101517
								CHANNELS 6 Xposition Yposition Zposition Zrotation Yrotation Xrotation
								JOINT HeadEnd
								{
									OFFSET 0.000000 0.000000 11.655090
									CHANNELS 6 Xposition Yposition Zposition Zrotation Yrotation Xrotation
									End Site
									{
										OFFSET 0.000000 0.000000 0.100006
									}
								}
							}
						}
					}
					JOINT RightShoulder
					{
						OFFSET -2.625397 0.000000 11.175217
						CHANNELS 6 Xposition Yposition Zposition Zrotation Yrotation Xrotation
						JOINT RightArm
						{
							OFFSET 0.000000 0.000000 10.434723
							CHANNELS 6 Xposition Yposition Zposition Zrotation Yrotation Xrotation
							JOINT RightForeArm
							{
								OFFSET 0.000000 0.000000 29.628418
								CHANNELS 6 Xposition Yposition Zposition Zrotation Yrotation Xrotation
								JOINT RightHand
								{
									OFFSET 0.000000 0.000000 22.857605
									CHANNELS 6 Xposition Yposition Zposition Zrotation Yrotation Xrotation
									JOINT RightHandThumb1
									{
										OFFSET -2.867310 -2.944275 3.959564
										CHANNELS 6 Xposition Yposition Zposition Zrotation Yrotation Xrotation
										JOINT RightHandThumb2
										{
											OFFSET 0.000000 0.000000 3.350403
											CHANNELS 6 Xposition Yposition Zposition Zrotation Yrotation Xrotation
											JOINT RightHandThumb3
											{
												OFFSET 0.000000 0.000000 3.756516
												CHANNELS 6 Xposition Yposition Zposition Zrotation Yrotation Xrotation
												JOINT RightHandThumb4
												{
													OFFSET 0.000000 0.000000 3.147339
													CHANNELS 6 Xposition Yposition Zposition Zrotation Yrotation Xrotation
													End Site
													{
														OFFSET 0.000000 0.000000 0.100006
													}
												}
											}
										}
									}
									JOINT RightHandIndex1
									{
										OFFSET -0.086761 -2.345276 10.030899
										CHANNELS 6 Xposition Yposition Zposition Zrotation Yrotation Xrotation
										JOINT RightHandIndex2
										{
											OFFSET 0.000000 0.000000 4.061096
											CHANNELS 6 Xposition Yposition Zposition Zrotation Yrotation Xrotation
											JOINT RightHandIndex3
											{
												OFFSET 0.000000 0.000000 3.248871
												CHANNELS 6 Xposition Yposition Zposition Zrotation Yrotation Xrotation
												JOINT RightHandIndex4
												{
													OFFSET 0.000000 0.000000 2.639709
													CHANNELS 6 Xposition Yposition Zposition Zrotation Yrotation Xrotation
													End Site
													{
														OFFSET 0.000000 0.000000 0.100006
													}
												}
											}
										}
									}
									JOINT RightHandMiddle1
									{
										OFFSET 0.104095 -0.006775 9.502945
										CHANNELS 6 Xposition Yposition Zposition Zrotation Yrotation Xrotation
										JOINT RightHandMiddle2
										{
											OFFSET 0.000000 0.000000 4.568726
											CHANNELS 6 Xposition Yposition Zposition Zrotation Yrotation Xrotation
											JOINT RightHandMiddle3
											{
												OFFSET 0.000000 0.000000 3.654984
												CHANNELS 6 Xposition Yposition Zposition Zrotation Yrotation Xrotation
												JOINT RightHandMiddle4
												{
													OFFSET 0.000000 0.000000 2.741241
													CHANNELS 6 Xposition Yposition Zposition Zrotation Yrotation Xrotation
													End Site
													{
														OFFSET 0.000000 0.000000 0.100006
													}
												}
											}
										}
									}
									JOINT RightHandRing1
									{
										OFFSET 0.086761 2.267456 8.921707
										CHANNELS 6 Xposition Yposition Zposition Zrotation Yrotation Xrotation
										JOINT RightHandRing2
										{
											OFFSET 0.000000 0.000000 4.061096
											CHANNELS 6 Xposition Yposition Zposition Zrotation Yrotation Xrotation
											JOINT RightHandRing3
											{
												OFFSET 0.000000 0.000000 3.654984
												CHANNELS 6 Xposition Yposition Zposition Zrotation Yrotation Xrotation
												JOINT RightHandRing4
												{
													OFFSET 0.000000 0.000000 2.741241
													CHANNELS 6 Xposition Yposition Zposition Zrotation Yrotation Xrotation
													End Site
													{
														OFFSET 0.000000 0.000000 0.100006
													}
												}
											}
										}
									}
									JOINT RightHandPinky1
									{
										OFFSET -0.173492 4.467224 7.976990
										CHANNELS 6 Xposition Yposition Zposition Zrotation Yrotation Xrotation
										JOINT RightHandPinky2
										{
											OFFSET 0.000000 0.000000 3.350403
											CHANNELS 6 Xposition Yposition Zposition Zrotation Yrotation Xrotation
											JOINT RightHandPinky3
											{
												OFFSET 0.000000 0.000000 2.842758
												CHANNELS 6 Xposition Yposition Zposition Zrotation Yrotation Xrotation
												JOINT RightHandPinky4
												{
													OFFSET 0.000000 0.000000 2.639709
													CHANNELS 6 Xposition Yposition Zposition Zrotation Yrotation Xrotation
													End Site
													{
														OFFSET 0.000000 0.000000 0.100006
													}
												}
											}
										}
									}
									JOINT RightForeArmEnd
									{
										OFFSET 0.000000 0.000000 0.000000
										CHANNELS 6 Xposition Yposition Zposition Zrotation Yrotation Xrotation
										End Site
										{
											OFFSET 0.000000 0.000000 0.100006
										}
									}
								}
								JOINT RightArmEnd
								{
									OFFSET 0.000000 0.000000 0.000000
									CHANNELS 6 Xposition Yposition Zposition Zrotation Yrotation Xrotation
									End Site
									{
										OFFSET 0.000000 0.000000 0.100006
									}
								}
							}
						}
					}
					JOINT LeftShoulder
					{
						OFFSET 2.625397 0.000000 11.175217
						CHANNELS 6 Xposition Yposition Zposition Zrotation Yrotation Xrotation
						JOINT LeftArm
						{
							OFFSET 0.000000 0.000000 10.813629
							CHANNELS 6 Xposition Yposition Zposition Zrotation Yrotation Xrotation
							JOINT LeftForeArm
							{
								OFFSET 0.000000 0.000000 28.724777
								CHANNELS 6 Xposition Yposition Zposition Zrotation Yrotation Xrotation
								JOINT LeftHand
								{
									OFFSET 0.644379 0.328857 25.716171
									CHANNELS 6 Xposition Yposition Zposition Zrotation Yrotation Xrotation
									JOINT LeftHandThumb1
									{
										OFFSET 2.867310 -2.944275 3.959564
										CHANNELS 6 Xposition Yposition Zposition Zrotation Yrotation Xrotation
										JOINT LeftHandThumb2
										{
											OFFSET 0.000000 0.000000 3.350403
											CHANNELS 6 Xposition Yposition Zposition Zrotation Yrotation Xrotation
											JOINT LeftHandThumb3
											{
												OFFSET 0.000000 0.000000 3.756516
												CHANNELS 6 Xposition Yposition Zposition Zrotation Yrotation Xrotation
												JOINT LeftHandThumb4
												{
													OFFSET 0.000000 0.000000 3.100006
													CHANNELS 6 Xposition Yposition Zposition Zrotation Yrotation Xrotation
													End Site
													{
														OFFSET 0.000000 0.000000 0.100006
													}
												}
											}
										}
									}
									JOINT LeftHandIndex1
									{
										OFFSET 0.086761 -2.345276 10.030899
										CHANNELS 6 Xposition Yposition Zposition Zrotation Yrotation Xrotation
										JOINT LeftHandIndex2
										{
											OFFSET 0.000000 0.000000 4.061096
											CHANNELS 6 Xposition Yposition Zposition Zrotation Yrotation Xrotation
											JOINT LeftHandIndex3
											{
												OFFSET 0.000000 0.000000 3.248871
												CHANNELS 6 Xposition Yposition Zposition Zrotation Yrotation Xrotation
												JOINT LeftHandIndex4
												{
													OFFSET 0.000000 0.000000 2.639709
													CHANNELS 6 Xposition Yposition Zposition Zrotation Yrotation Xrotation
													End Site
													{
														OFFSET 0.000000 0.000000 0.100006
													}
												}
											}
										}
									}
									JOINT LeftHandMiddle1
									{
										OFFSET -0.104095 -0.006775 9.502945
										CHANNELS 6 Xposition Yposition Zposition Zrotation Yrotation Xrotation
										JOINT LeftHandMiddle2
										{
											OFFSET 0.000000 0.000000 4.568726
											CHANNELS 6 Xposition Yposition Zposition Zrotation Yrotation Xrotation
											JOINT LeftHandMiddle3
											{
												OFFSET 0.000000 0.000000 3.654984
												CHANNELS 6 Xposition Yposition Zposition Zrotation Yrotation Xrotation
												JOINT LeftHandMiddle4
												{
													OFFSET 0.000000 0.000000 2.741241
													CHANNELS 6 Xposition Yposition Zposition Zrotation Yrotation Xrotation
													End Site
													{
														OFFSET 0.000000 0.000000 0.100006
													}
												}
											}
										}
									}
									JOINT LeftHandRing1
									{
										OFFSET -0.086761 2.267456 8.921707
										CHANNELS 6 Xposition Yposition Zposition Zrotation Yrotation Xrotation
										JOINT LeftHandRing2
										{
											OFFSET 0.000000 0.000000 4.061096
											CHANNELS 6 Xposition Yposition Zposition Zrotation Yrotation Xrotation
											JOINT LeftHandRing3
											{
												OFFSET 0.000000 0.000000 3.654984
												CHANNELS 6 Xposition Yposition Zposition Zrotation Yrotation Xrotation
												JOINT LeftHandRing4
												{
													OFFSET 0.000000 0.000000 2.741241
													CHANNELS 6 Xposition Yposition Zposition Zrotation Yrotation Xrotation
													End Site
													{
														OFFSET 0.000000 0.000000 0.100006
													}
												}
											}
										}
									}
									JOINT LeftHandPinky1
									{
										OFFSET 0.173492 4.467224 7.976990
										CHANNELS 6 Xposition Yposition Zposition Zrotation Yrotation Xrotation
										JOINT LeftHandPinky2
										{
											OFFSET 0.000000 0.000000 3.350403
											CHANNELS 6 Xposition Yposition Zposition Zrotation Yrotation Xrotation
											JOINT LeftHandPinky3
											{
												OFFSET 0.000000 0.000000 2.842758
												CHANNELS 6 Xposition Yposition Zposition Zrotation Yrotation Xrotation
												JOINT LeftHandPinky4
												{
													OFFSET 0.000000 0.000000 2.639709
													CHANNELS 6 Xposition Yposition Zposition Zrotation Yrotation Xrotation
													End Site
													{
														OFFSET 0.000000 0.000000 0.100006
													}
												}
											}
										}
									}
									JOINT LeftForeArmEnd
									{
										OFFSET 0.000000 0.000000 0.000000
										CHANNELS 6 Xposition Yposition Zposition Zrotation Yrotation Xrotation
										End Site
										{
											OFFSET 0.000000 0.000000 0.100006
										}
									}
								}
								JOINT LeftArmEnd
								{
									OFFSET 0.000000 0.000000 0.000000
									CHANNELS 6 Xposition Yposition Zposition Zrotation Yrotation Xrotation
									End Site
									{
										OFFSET 0.000000 0.000000 0.100006
									}
								}
							}
						}
					}
				}
			}
		}
	}
	JOINT RightUpLeg
	{
		OFFSET -11.289948 0.000000 0.000000
		CHANNELS 6 Xposition Yposition Zposition Zrotation Yrotation Xrotation
		JOINT RightLeg
		{
			OFFSET 0.000000 0.000000 -38.200329
			CHANNELS 6 Xposition Yposition Zposition Zrotation Yrotation Xrotation
			JOINT RightFoot
			{
				OFFSET 0.000000 0.000000 -39.900856
				CHANNELS 6 Xposition Yposition Zposition Zrotation Yrotation Xrotation
				JOINT RightToeBase
				{
					OFFSET 0.000000 -15.261658 0.000001
					CHANNELS 6 Xposition Yposition Zposition Zrotation Yrotation Xrotation
					JOINT RightToeBaseEnd
					{
						OFFSET 0.000000 -7.370728 0.000001
						CHANNELS 6 Xposition Yposition Zposition Zrotation Yrotation Xrotation
						End Site
						{
							OFFSET 0.000000 0.000000 0.100000
						}
					}
				}
				JOINT RightLegEnd
				{
					OFFSET 0.000000 0.000000 0.000000
					CHANNELS 6 Xposition Yposition Zposition Zrotation Yrotation Xrotation
					End Site
					{
						OFFSET 0.000000 0.000000 0.100000
					}
				}
			}
			JOINT RightUpLegEnd
			{
				OFFSET 0.000000 0.000000 0.000000
				CHANNELS 6 Xposition Yposition Zposition Zrotation Yrotation Xrotation
				End Site
				{
					OFFSET 0.000000 0.000000 0.099998
				}
			}
		}
	}
	JOINT LeftUpLeg
	{
		OFFSET 11.315674 0.000000 0.000000
		CHANNELS 6 Xposition Yposition Zposition Zrotation Yrotation Xrotation
		JOINT LeftLeg
		{
			OFFSET 0.000000 0.000000 -38.200329
			CHANNELS 6 Xposition Yposition Zposition Zrotation Yrotation Xrotation
			JOINT LeftFoot
			{
				OFFSET 0.000000 0.000000 -39.900856
				CHANNELS 6 Xposition Yposition Zposition Zrotation Yrotation Xrotation
				JOINT LeftToeBase
				{
					OFFSET 0.000000 -15.261658 0.000001
					CHANNELS 6 Xposition Yposition Zposition Zrotation Yrotation Xrotation
					JOINT LeftToeBaseEnd
					{
						OFFSET 0.000000 -7.539978 0.000001
						CHANNELS 6 Xposition Yposition Zposition Zrotation Yrotation Xrotation
						End Site
						{
							OFFSET 0.000000 0.000000 0.100000
						}
					}
				}
				JOINT LeftLegEnd
				{
					OFFSET 0.000000 0.000000 0.000000
					CHANNELS 6 Xposition Yposition Zposition Zrotation Yrotation Xrotation
					End Site
					{
						OFFSET 0.000000 0.000000 0.100000
					}
				}
			}
			JOINT LeftUpLegEnd
			{
				OFFSET 0.000000 0.000000 0.000000
				CHANNELS 6 Xposition Yposition Zposition Zrotation Yrotation Xrotation
				End Site
				{
					OFFSET 0.000000 0.000000 0.099998
				}
			}
		}
	}
}
MOTION
Frames: 2
Frame Time: 0.016667
-8.366302 -24.360168 85.879974 -13.948985 -2.181115 -16.325501 -0.000013 2.080080 8.814244 0.784886 -0.290679 13.657944 0.000005 0.000008 8.844136 0.579008 0.634483 8.313993 0.000005 -0.000027 11.682259 2.812587 4.100729 12.829652 0.000001 -0.000015 11.746696 1.007363 5.363063 6.097212 -0.000004 0.000002 17.658249 -3.303763 -12.430240 -18.267498 0.000007 0.000002 5.101511 -1.184002 -4.107193 -20.704450 0.000016 0.000023 5.101511 -1.058783 -0.492174 -8.168178 0.000010 0.000010 11.655058 -0.000001 0.000000 0.000000 -2.625381 0.000039 11.175195 21.015988 -83.493209 0.878786 0.000000 0.000008 10.434715 -57.908741 -54.511463 71.564052 -0.000004 -0.000008 29.628433 19.256967 -0.022626 18.318091 -0.000008 -0.000004 22.857584 6.748184 -3.862783 -5.608915 -2.867352 -2.944244 3.959549 31.690725 -16.746661 52.306839 -0.000042 0.000015 3.350418 -11.527888 7.943497 -20.956234 -0.000050 0.000011 3.756523 -7.690610 5.973171 -14.361084 -0.000028 -0.000004 3.147352 0.000000 -0.000000 -0.000001 -0.086735 -2.345284 10.030895 -10.296413 -9.160855 2.902306 -0.000008 0.000021 4.061087 0.444973 -6.679036 0.943032 0.000002 0.000014 3.248872 -0.055026 -6.679550 0.943024 0.000016 0.000008 2.639728 -0.000001 0.000002 -0.000001 0.104084 -0.006792 9.502948 -4.940528 -7.938663 0.039433 -0.000007 0.000020 4.568752 0.483746 -5.626749 0.296004 0.000006 0.000005 3.655001 -0.017562 -5.626709 0.296134 -0.000013 -0.000007 2.741241 0.000001 0.000000 0.000000 0.086756 2.267539 8.921704 3.208298 -7.392447 -1.567495 -0.000013 -0.000057 4.061134 -0.984486 -5.316202 -0.326121 0.000002 0.000022 3.654998 0.015958 -5.316187 -0.326165 -0.000039 -0.000003 2.741235 0.000000 0.000001 -0.000001 -0.173513 4.467260 7.977009 11.912648 -5.874759 -3.402716 -0.000013 -0.000062 3.350410 -1.964997 -4.527755 -0.881989 0.000000 -0.000082 2.842765 0.034552 -4.527732 -0.881957 0.000007 -0.000063 2.639715 0.000000 0.000001 -0.000000 -0.000008 0.000057 -0.000015 0.000001 0.000000 0.000000 -0.000012 -0.000014 0.000010 0.000002 0.000000 0.000001 2.625381 -0.000017 11.175193 -15.593166 75.529284 -0.489483 0.000008 0.000009 10.813629 -46.392585 68.547205 -40.789043 -0.000008 0.000000 28.724758 -27.979814 1.162285 118.597916 0.644363 0.328804 25.716171 -16.623323 50.767433 -38.556845 2.867271 -2.944290 3.959564 -31.644727 17.093766 51.773025 -0.000004 -0.000084 3.350410 12.293597 -8.271508 -22.243853 -0.000048 -0.000034 3.756535 8.189158 -6.261716 -15.233304 0.000005 -0.000003 3.099996 0.000000 0.000000 0.000001 0.086697 -2.345261 10.030926 -6.306707 12.564060 -5.755392 -0.000041 -0.000023 4.061098 0.391680 9.345116 -1.325277 -0.000025 0.000026 3.248873 -0.110109 9.345306 -1.325553 -0.000021 0.000008 2.639755 -0.000000 0.000002 -0.000005 -0.104128 -0.006776 9.502968 -1.327689 12.121602 -6.205226 -0.000024 -0.000015 4.568770 0.462964 8.858596 -0.468118 -0.000027 -0.000003 3.654994 -0.037653 8.858575 -0.468226 -0.000043 0.000008 2.741267 -0.000001 0.000001 0.000001 -0.086830 2.267429 8.921722 7.187044 15.023493 -7.951208 -0.000024 0.000025 4.061138 -0.940615 10.187881 0.630367 -0.000024 -0.000024 3.655011 0.058747 10.187881 0.630239 -0.000035 -0.000006 2.741261 0.000000 -0.000000 0.000002 0.173508 4.467251 7.976982 16.142312 17.959491 -8.859635 0.000013 -0.000077 3.350405 -1.796212 10.826931 2.130805 -0.000024 -0.000051 2.842810 0.201972 10.826923 2.130461 -0.000035 0.000000 2.639703 0.000000 0.000000 -0.000001 -0.000016 0.000050 -0.000016 0.000002 -0.000001 -0.000002 -0.000006 -0.000030 -0.000005 0.000004 -0.000001 0.000002 -11.289938 0.000059 -0.000012 -5.436014 17.534301 0.621358 -0.000038 0.000059 -38.200279 -0.832285 0.440842 27.907207 0.000036 -0.000011 -39.900826 -23.743387 -8.189262 22.785914 -0.000013 -15.261726 -0.000002 1.551172 2.105117 -16.952400 -0.000006 -7.370788 0.000000 -0.000000 0.000001 0.000002 -0.000010 -0.000040 0.000003 -0.000003 0.000001 0.000000 0.000007 0.000062 -0.000000 0.000000 -0.000001 -0.000002 11.315665 -0.000041 -0.000015 -11.145084 5.603035 3.877811 0.000015 0.000013 -38.200325 0.036537 -0.020600 31.945246 -0.000035 -0.000026 -39.900856 8.329936 -1.545030 8.073112 -0.000017 -15.261713 0.000015 -0.914543 0.101183 -19.457841 -0.000046 -7.539919 0.000001 0.000000 -0.000000 0.000001 -0.000027 -0.000062 0.000005 0.000000 0.000000 0.000000 0.000024 -0.000003 0.000003 0.000000 0.000000 0.000003 
-8.500244 -23.700256 85.724060 -14.655139 -1.458455 -15.759903 0.000007 2.080050 8.814234 0.813076 -0.464431 14.195535 -0.000008 -0.000021 8.844157 0.558139 0.605267 8.938742 0.000015 -0.000025 11.682257 2.734104 3.804769 12.463786 0.000019 0.000031 11.746700 1.054709 5.168932 6.043504 0.000011 -0.000006 17.658264 -2.616857 -10.702183 -17.990227 0.000002 -0.000008 5.101522 -0.993321 -3.633248 -19.886854 0.000012 -0.000014 5.101517 -1.064207 -0.166228 -8.464050 -0.000005 -0.000002 11.655065 0.000000 -0.000000 -0.000001 -2.625393 0.000015 11.175199 21.393245 -82.247499 0.891867 0.000008 0.000000 10.434759 -57.879727 -54.813354 71.864764 -0.000006 -0.000008 29.628389 19.519282 -0.056916 19.341096 -0.000013 0.000010 22.857595 5.569177 -3.937056 -6.063755 -2.867363 -2.944260 3.959572 31.666980 -16.919854 52.039792 -0.000042 0.000015 3.350403 -11.909772 8.109657 -21.599391 -0.000078 0.000015 3.756516 -7.939295 6.118399 -14.796811 -0.000035 0.000009 3.147331 -0.000000 -0.000000 -0.000001 -0.086754 -2.345265 10.030930 -10.461573 -10.027451 2.348567 0.000014 -0.000016 4.061108 0.435548 -7.224993 1.020877 -0.000007 -0.000006 3.248863 -0.064448 -7.224983 1.020872 0.000007 -0.000016 2.639706 0.000002 0.000001 -0.000001 0.104118 -0.006743 9.502977 -5.073663 -8.683040 -0.582585 0.000013 0.000026 4.568736 0.482307 -6.127314 0.322398 -0.000001 0.000021 3.654975 -0.018393 -6.127327 0.322472 0.000006 0.000002 2.741236 -0.000000 -0.000000 0.000000 0.086773 2.267478 8.921740 3.104572 -7.934454 -2.349154 -0.000022 -0.000051 4.061131 -0.981709 -5.743369 -0.352516 0.000004 -0.000087 3.655005 0.017670 -5.743366 -0.352400 -0.000028 -0.000001 2.741215 0.000000 0.000000 -0.000000 -0.173494 4.467279 7.977016 11.832191 -6.119759 -4.294737 0.000010 -0.000062 3.350423 -1.960238 -4.833903 -0.941957 -0.000015 -0.000071 2.842757 0.039751 -4.834448 -0.941942 -0.000014 -0.000054 2.639723 -0.000001 0.000000 0.000000 0.000018 0.000048 -0.000008 0.000002 0.000000 -0.000001 0.000008 0.000012 -0.000014 -0.000002 -0.000000 -0.000000 2.625389 -0.000017 11.175235 -16.260730 74.933131 -0.485150 -0.000015 0.000017 10.813614 -52.024786 67.524316 -43.135339 0.000038 -0.000031 28.724737 -28.132654 1.148809 118.505421 0.644379 0.328857 25.716171 -13.637217 48.805858 -36.815843 2.867252 -2.944260 3.959549 -31.644704 17.093797 51.773005 0.000019 -0.000076 3.350479 12.293599 -8.271546 -22.243886 -0.000021 -0.000015 3.756527 8.189151 -6.261735 -15.233315 -0.000026 -0.000004 3.100009 0.000000 -0.000002 -0.000000 0.086727 -2.345287 10.030918 -6.241825 13.220094 -4.867049 -0.000016 -0.000030 4.061099 0.382941 9.709594 -1.377950 -0.000032 0.000010 3.248891 -0.117041 9.709588 -1.377938 -0.000006 0.000007 2.639719 -0.000001 -0.000001 -0.000001 -0.104121 -0.006801 9.502956 -1.246002 12.691965 -5.253843 -0.000013 0.000002 4.568730 0.460648 9.222030 -0.487517 -0.000020 0.000014 3.655002 -0.039874 9.221704 -0.487639 -0.000016 0.000005 2.741256 -0.000001 0.000000 0.000002 -0.086796 2.267467 8.921711 7.284012 15.349136 -6.865377 -0.000017 0.000026 4.061152 -0.938899 10.478225 0.648439 -0.000071 -0.000010 3.655001 0.060763 10.478218 0.648381 -0.000061 0.000005 2.741251 -0.000000 0.000002 -0.000001 0.173473 4.467232 7.976997 16.223928 17.824142 -7.588094 -0.000019 -0.000083 3.350409 -1.794150 10.930239 2.151289 0.000014 -0.000077 2.842760 0.205837 10.930244 2.151279 -0.000038 0.000004 2.639701 0.000001 0.000001 -0.000004 -0.000011 0.000007 -0.000002 -0.000001 -0.000003 -0.000000 0.000011 -0.000013 0.000004 0.000002 -0.000001 0.000000 -11.289944 0.000048 -0.000006 -5.367371 16.223081 -1.122147 0.000010 0.000056 -38.200302 -0.643903 0.357492 29.037542 0.000020 -0.000004 -39.900837 -23.914220 -7.103430 23.012751 0.000002 -15.261633 -0.000005 1.458373 1.863727 -17.241742 0.000013 -7.370772 0.000002 -0.000003 0.000001 0.000002 -0.000014 -0.000051 0.000002 -0.000002 0.000001 0.000000 -0.000013 0.000065 -0.000008 -0.000001 0.000001 0.000001 11.315679 -0.000077 -0.000013 -10.903664 4.360090 2.324348 0.000023 0.000018 -38.200291 0.040815 -0.027545 33.661184 -0.000019 -0.000095 -39.900852 8.446674 -1.141146 7.580024 -0.000033 -15.261679 0.000003 -0.919927 -0.001824 -19.274628 -0.000026 -7.539972 0.000000 -0.000001 -0.000000 -0.000000 -0.000027 -0.000006 0.000003 0.000001 0.000000 0.000002 0.000007 -0.000001 -0.000002 0.000000 0.000000 -0.000001 
